<svg width="50" height="50" viewBox="0 0 50 50" fill="none" xmlns="http://www.w3.org/2000/svg">
<path d="M25.0003 4.16675C13.7066 4.16675 4.16699 13.7063 4.16699 25.0001C4.16699 36.2938 13.7066 45.8334 25.0003 45.8334C36.2941 45.8334 45.8337 36.2938 45.8337 25.0001C45.8337 13.7063 36.2941 4.16675 25.0003 4.16675ZM25.0003 14.5834C28.5982 14.5834 31.2503 17.2334 31.2503 20.8334C31.2503 24.4334 28.5982 27.0834 25.0003 27.0834C21.4045 27.0834 18.7503 24.4334 18.7503 20.8334C18.7503 17.2334 21.4045 14.5834 25.0003 14.5834ZM14.3628 34.9417C16.2316 32.1917 19.3482 30.3584 22.917 30.3584H27.0837C30.6545 30.3584 33.7691 32.1917 35.6378 34.9417C32.9753 37.7917 29.1982 39.5834 25.0003 39.5834C20.8024 39.5834 17.0253 37.7917 14.3628 34.9417Z" fill="#C4C4C4"/>
</svg>
