<svg width="24" height="24" viewBox="0 0 24 24" fill="none" xmlns="http://www.w3.org/2000/svg">
<g clip-path="url(#clip0_73_22666)">
<path d="M6.66675 3.46666H18.6667V4.49999H6.66675V3.46666Z" fill="#DC6900"/>
<path d="M19.3333 5.33333H6.57329C6.40316 5.33092 6.23527 5.29407 6.07977 5.22502C5.92426 5.15596 5.78436 5.05613 5.66848 4.93153C5.55261 4.80694 5.46317 4.66016 5.40556 4.50006C5.34795 4.33996 5.32337 4.16985 5.33329 3.99999C5.33246 3.66196 5.46005 3.33624 5.69025 3.08871C5.92046 2.84118 6.23609 2.69032 6.57329 2.66666H19.3333C19.5101 2.66666 19.6797 2.59642 19.8047 2.4714C19.9297 2.34638 20 2.17681 20 1.99999C20 1.82318 19.9297 1.65361 19.8047 1.52859C19.6797 1.40357 19.5101 1.33333 19.3333 1.33333H6.57329C5.88234 1.35753 5.22781 1.64912 4.74772 2.14662C4.26763 2.64412 3.99953 3.30863 3.99995 3.99999C3.9935 4.10879 3.9935 4.21787 3.99995 4.32666C3.99353 4.3798 3.99353 4.43352 3.99995 4.48666V20C3.99953 20.6914 4.26763 21.3559 4.74772 21.8534C5.22781 22.3509 5.88234 22.6425 6.57329 22.6667H19.3333C19.5101 22.6667 19.6797 22.5964 19.8047 22.4714C19.9297 22.3464 20 22.1768 20 22V6.04666C20.0003 5.86529 19.9316 5.69058 19.8078 5.55807C19.6839 5.42555 19.5143 5.34519 19.3333 5.33333ZM18.6666 21.3333H6.57329C6.23609 21.3097 5.92046 21.1588 5.69025 20.9113C5.46005 20.6637 5.33246 20.338 5.33329 20V6.36666C5.71235 6.57577 6.14056 6.67937 6.57329 6.66666H18.6666V21.3333Z" fill="#DC6900"/>
</g>
<defs>
<clipPath id="clip0_73_22666">
<rect width="24" height="24" fill="white"/>
</clipPath>
</defs>
</svg>
