<svg width="150" height="13" viewBox="0 0 150 13" fill="none" xmlns="http://www.w3.org/2000/svg">
<path fill-rule="evenodd" clip-rule="evenodd" d="M17.9522 6.3828C17.9522 6.27699 17.8891 6.17552 17.7769 6.10071C17.6647 6.02589 17.5125 5.98386 17.3538 5.98386H3.23982L7.00618 3.47376C7.06182 3.43667 7.10595 3.39263 7.13606 3.34417C7.16617 3.29571 7.18167 3.24377 7.18167 3.19131C7.18167 3.13885 7.16617 3.08691 7.13606 3.03845C7.10595 2.98999 7.06182 2.94595 7.00618 2.90886C6.95054 2.87177 6.88449 2.84235 6.8118 2.82228C6.7391 2.8022 6.66119 2.79187 6.58251 2.79187C6.50383 2.79187 6.42591 2.8022 6.35322 2.82228C6.28053 2.84235 6.21448 2.87177 6.15884 2.90886L1.3716 6.10035C1.31588 6.13741 1.27166 6.18143 1.2415 6.2299C1.21133 6.27837 1.1958 6.33033 1.1958 6.3828C1.1958 6.43527 1.21133 6.48723 1.2415 6.5357C1.27166 6.58417 1.31588 6.62819 1.3716 6.66525L6.15884 9.85674C6.21448 9.89383 6.28053 9.92325 6.35322 9.94332C6.42591 9.9634 6.50383 9.97373 6.58251 9.97373C6.66119 9.97373 6.7391 9.9634 6.8118 9.94332C6.88449 9.92325 6.95054 9.89383 7.00618 9.85674C7.06182 9.81964 7.10595 9.77561 7.13606 9.72715C7.16617 9.67869 7.18167 9.62674 7.18167 9.57429C7.18167 9.52183 7.16617 9.46989 7.13606 9.42143C7.10595 9.37297 7.06182 9.32893 7.00618 9.29184L3.23982 6.78174H17.3538C17.5125 6.78174 17.6647 6.73971 17.7769 6.66489C17.8891 6.59008 17.9522 6.4886 17.9522 6.3828Z" fill="#D9D9D9"/>
<circle cx="33.5108" cy="6.38292" r="3.98936" fill="#D9D9D9"/>
<circle cx="52.6593" cy="6.38292" r="3.98936" fill="#D9D9D9"/>
<circle cx="71.8087" cy="6.38292" r="3.98936" fill="#DC6900"/>
<circle cx="90.9576" cy="6.38292" r="3.98936" fill="#D9D9D9"/>
<circle cx="110.107" cy="6.38292" r="3.98936" fill="#D9D9D9"/>
<path fill-rule="evenodd" clip-rule="evenodd" d="M132.048 6.3828C132.048 6.27699 132.111 6.17552 132.223 6.10071C132.335 6.02589 132.488 5.98386 132.646 5.98386H146.76L142.994 3.47376C142.881 3.39885 142.818 3.29725 142.818 3.19131C142.818 3.08537 142.881 2.98377 142.994 2.90886C143.106 2.83395 143.259 2.79187 143.418 2.79187C143.576 2.79187 143.729 2.83395 143.841 2.90886L148.628 6.10035C148.684 6.13741 148.728 6.18143 148.759 6.2299C148.789 6.27837 148.804 6.33033 148.804 6.3828C148.804 6.43527 148.789 6.48723 148.759 6.5357C148.728 6.58417 148.684 6.62819 148.628 6.66525L143.841 9.85674C143.729 9.93165 143.576 9.97373 143.418 9.97373C143.259 9.97373 143.106 9.93165 142.994 9.85674C142.881 9.78183 142.818 9.68023 142.818 9.57429C142.818 9.46835 142.881 9.36675 142.994 9.29184L146.76 6.78174H132.646C132.488 6.78174 132.335 6.73971 132.223 6.66489C132.111 6.59008 132.048 6.4886 132.048 6.3828Z" fill="#D9D9D9"/>
</svg>
